<?xml version="1.0" encoding="utf-8"?>
<svg id="master-artboard" viewBox="0 0 696.2962036132812 115.18502044677734" version="1.1" xmlns="http://www.w3.org/2000/svg" x="0px" y="0px" style="enable-background:new 0 0 1400 980;" width="696.2962036132812px" height="115.18502044677734px"><rect id="ee-background" x="0" y="0" width="696.2962036132812" height="115.18502044677734" style="fill: white; fill-opacity: 0; pointer-events: none;"/><g transform="matrix(2.2617125511169434, 0, 0, 2.2617125511169434, -366.66677071872255, -315.2863540649414)"><g transform="translate(0.000000,324.000000) scale(0.100000,-0.100000)" fill="#000000" stroke="none">
<path d="M2082 1811 c-8 -5 -12 -17 -10 -27 5 -26 51 -26 56 0 3 16 -12 36&#10;-28 36 -3 0 -11 -4 -18 -9z"/>
<path d="M2355 1813 c-62 -17 -124 -101 -125 -171 0 -37 23 -97 48 -125 59&#10;-66 188 -74 250 -17 40 38 22 154 -22 137 -11 -5 -16 -19 -16 -51 0 -42 -2&#10;-45 -36 -56 -112 -37 -212 91 -139 179 38 44 81 55 140 36 26 -9 53 -14 61&#10;-11 23 9 16 42 -12 61 -27 17 -113 28 -149 18z"/>
<path d="M2672 1811 c-23 -14 -10 -46 18 -46 16 0 26 6 28 19 3 16 -12 36 -28&#10;36 -3 0 -11 -4 -18 -9z"/>
<path d="M3811 1806 c-17 -20 -2 -48 23 -44 24 3 34 37 14 49 -18 12 -24 11&#10;-37 -5z"/>
<path d="M1687 1803 c-4 -3 -7 -78 -7 -165 0 -132 3 -160 15 -164 8 -4 22 -1&#10;30 6 12 10 15 40 15 142 l0 130 56 -4 c68 -6 103 -35 111 -96 4 -30 0 -50 -17&#10;-80 -38 -68 -5 -99 44 -42 29 35 41 84 33 142 -12 89 -81 138 -198 138 -42 0&#10;-79 -3 -82 -7z"/>
<path d="M2814 1795 c-12 -31 4 -45 50 -45 l45 0 3 -137 3 -138 25 0 25 0 0&#10;165 0 165 -73 3 c-58 2 -73 0 -78 -13z"/>
<path d="M3024 1796 c-9 -24 4 -48 23 -44 12 2 18 12 18 28 0 29 -32 41 -41&#10;16z"/>
<path d="M3159 1664 c-38 -81 -69 -157 -67 -168 5 -35 40 -26 63 16 l20 37 89&#10;3 c68 2 91 7 99 19 13 21 -90 232 -116 237 -14 3 -32 -27 -88 -144z m115 -7&#10;c9 -23 16 -46 16 -50 0 -4 -18 -7 -40 -7 -28 0 -40 4 -40 15 0 18 32 85 40 85&#10;4 0 15 -19 24 -43z"/>
<path d="M3505 1788 c-3 -13 -4 -88 -3 -168 l3 -145 51 -3 c35 -2 55 2 63 11&#10;18 23 3 47 -30 47 l-29 0 0 124 c0 68 -3 131 -6 140 -9 24 -43 20 -49 -6z"/>
<path d="M3994 1795 c-14 -34 3 -44 81 -47 l76 -3 -86 -117 c-49 -67 -85 -125&#10;-83 -135 5 -25 152 -32 161 -8 11 26 -4 44 -38 47 l-34 3 85 113 c58 77 84&#10;120 82 135 -3 21 -8 22 -121 25 -98 2 -118 0 -123 -13z"/>
<path d="M4379 1663 c-38 -81 -69 -156 -67 -168 5 -34 40 -25 63 17 l20 37 89&#10;3 c66 2 91 7 98 18 15 23 -89 240 -114 240 -15 0 -35 -34 -89 -147z m115 -6&#10;c9 -23 16 -46 16 -50 0 -4 -18 -7 -40 -7 -22 0 -40 4 -40 10 0 17 32 90 40 90&#10;4 0 15 -19 24 -43z"/>
<path d="M2081 1706 c-8 -9 -11 -51 -9 -122 3 -109 3 -109 28 -109 l25 0 3&#10;114 c2 85 -1 117 -10 123 -18 11 -24 10 -37 -6z"/>
<path d="M2671 1706 c-8 -9 -11 -51 -9 -122 3 -109 3 -109 28 -109 l25 0 3&#10;114 c2 85 -1 117 -10 123 -18 11 -24 10 -37 -6z"/>
<path d="M3812 1708 c-14 -14 -17 -205 -3 -226 5 -8 17 -12 27 -10 17 3 19 15&#10;22 117 2 85 -1 117 -10 123 -17 10 -22 10 -36 -4z"/>
<path d="M2394 1625 c-8 -21 2 -45 19 -45 20 0 40 27 33 45 -7 19 -45 20 -52&#10;0z"/>
<path d="M1784 1516 c-9 -24 4 -48 23 -44 24 4 24 52 0 56 -9 2 -20 -4 -23&#10;-12z"/>
<path d="M3354 1516 c-10 -26 4 -48 28 -44 17 2 23 10 23 28 0 18 -6 26 -23&#10;28 -13 2 -25 -3 -28 -12z"/>
<path d="M3674 1515 c-8 -21 2 -45 19 -45 21 0 38 25 31 44 -8 20 -43 21 -50&#10;1z"/>
<path d="M4194 1515 c-8 -21 2 -45 19 -45 8 0 20 7 27 15 10 12 10 18 0 30 -7&#10;8 -19 15 -27 15 -7 0 -16 -7 -19 -15z"/>
<path d="M4576 1514 c-9 -22 17 -49 39 -40 10 3 15 15 13 28 -4 29 -42 37 -52&#10;12z"/>
</g></g></svg>